<svg width="162" height="54" viewBox="0 0 162 54" fill="none" xmlns="http://www.w3.org/2000/svg">
<path d="M0.966582 42L11.7251 12.5823H17.7767L28.5352 42H22.8197L20.4663 35.1919H8.99342L6.59798 42H0.966582ZM10.4643 30.9894H18.9954L14.7089 18.76L10.4643 30.9894ZM31.148 42V21.1554H35.9389L36.4432 25.0638C37.1996 23.719 38.2222 22.6543 39.511 21.8699C40.8278 21.0574 42.3687 20.6511 44.1338 20.6511V26.3246H42.6209C41.4442 26.3246 40.3936 26.5067 39.469 26.8709C38.5444 27.2351 37.816 27.8655 37.2837 28.762C36.7794 29.6586 36.5272 30.9053 36.5272 32.5023V42H31.148ZM56.0473 42C53.862 42 52.111 41.4677 50.7942 40.403C49.4774 39.3384 48.819 37.4473 48.819 34.7296V25.6522H45.2468V21.1554H48.819L49.4494 15.5661H54.1982V21.1554H59.8296V25.6522H54.1982V34.7716C54.1982 35.7803 54.4083 36.4807 54.8286 36.8729C55.2769 37.2371 56.0333 37.4192 57.098 37.4192H59.7035V42H56.0473ZM66.2972 17.9195C65.3166 17.9195 64.5042 17.6253 63.8598 17.037C63.2434 16.4486 62.9352 15.7062 62.9352 14.8096C62.9352 13.9131 63.2434 13.1846 63.8598 12.6243C64.5042 12.0359 65.3166 11.7418 66.2972 11.7418C67.2778 11.7418 68.0763 12.0359 68.6927 12.6243C69.3371 13.1846 69.6593 13.9131 69.6593 14.8096C69.6593 15.7062 69.3371 16.4486 68.6927 17.037C68.0763 17.6253 67.2778 17.9195 66.2972 17.9195ZM63.6076 42V21.1554H68.9869V42H63.6076ZM83.763 42.5043C81.6337 42.5043 79.7566 42.042 78.1316 41.1175C76.5067 40.1929 75.2179 38.9041 74.2653 37.2511C73.3407 35.5981 72.8785 33.707 72.8785 31.5777C72.8785 29.4484 73.3407 27.5573 74.2653 25.9043C75.2179 24.2513 76.5067 22.9625 78.1316 22.038C79.7566 21.1134 81.6337 20.6511 83.763 20.6511C86.4246 20.6511 88.666 21.3516 90.4871 22.7524C92.3082 24.1252 93.4709 26.0304 93.9752 28.4678H88.3018C88.0216 27.4592 87.4613 26.6748 86.6207 26.1144C85.8083 25.5261 84.8417 25.2319 83.721 25.2319C82.2361 25.2319 80.9753 25.7922 79.9387 26.9129C78.9021 28.0336 78.3838 29.5885 78.3838 31.5777C78.3838 33.5669 78.9021 35.1219 79.9387 36.2425C80.9753 37.3632 82.2361 37.9235 83.721 37.9235C84.8417 37.9235 85.8083 37.6434 86.6207 37.083C87.4613 36.5227 88.0216 35.7242 88.3018 34.6876H93.9752C93.4709 37.041 92.3082 38.9322 90.4871 40.361C88.666 41.7899 86.4246 42.5043 83.763 42.5043ZM107.701 42.5043C105.684 42.5043 103.863 42.042 102.238 41.1175C100.641 40.1929 99.366 38.9181 98.4134 37.2932C97.4889 35.6402 97.0266 33.735 97.0266 31.5777C97.0266 29.4204 97.5029 27.5293 98.4555 25.9043C99.408 24.2513 100.683 22.9625 102.28 22.038C103.905 21.1134 105.726 20.6511 107.743 20.6511C109.732 20.6511 111.525 21.1134 113.122 22.038C114.747 22.9625 116.022 24.2513 116.947 25.9043C117.899 27.5293 118.375 29.4204 118.375 31.5777C118.375 33.735 117.899 35.6402 116.947 37.2932C116.022 38.9181 114.747 40.1929 113.122 41.1175C111.497 42.042 109.69 42.5043 107.701 42.5043ZM107.701 37.8395C109.102 37.8395 110.321 37.3212 111.357 36.2846C112.394 35.2199 112.912 33.651 112.912 31.5777C112.912 29.5045 112.394 27.9495 111.357 26.9129C110.321 25.8483 109.116 25.3159 107.743 25.3159C106.314 25.3159 105.081 25.8483 104.045 26.9129C103.036 27.9495 102.532 29.5045 102.532 31.5777C102.532 33.651 103.036 35.2199 104.045 36.2846C105.081 37.3212 106.3 37.8395 107.701 37.8395ZM132.136 42.5043C130.119 42.5043 128.298 42.042 126.673 41.1175C125.076 40.1929 123.801 38.9181 122.849 37.2932C121.924 35.6402 121.462 33.735 121.462 31.5777C121.462 29.4204 121.938 27.5293 122.891 25.9043C123.843 24.2513 125.118 22.9625 126.715 22.038C128.34 21.1134 130.161 20.6511 132.178 20.6511C134.168 20.6511 135.961 21.1134 137.558 22.038C139.183 22.9625 140.457 24.2513 141.382 25.9043C142.335 27.5293 142.811 29.4204 142.811 31.5777C142.811 33.735 142.335 35.6402 141.382 37.2932C140.457 38.9181 139.183 40.1929 137.558 41.1175C135.933 42.042 134.126 42.5043 132.136 42.5043ZM132.136 37.8395C133.537 37.8395 134.756 37.3212 135.793 36.2846C136.829 35.2199 137.348 33.651 137.348 31.5777C137.348 29.5045 136.829 27.9495 135.793 26.9129C134.756 25.8483 133.551 25.3159 132.178 25.3159C130.75 25.3159 129.517 25.8483 128.48 26.9129C127.472 27.9495 126.967 29.5045 126.967 31.5777C126.967 33.651 127.472 35.2199 128.48 36.2846C129.517 37.3212 130.736 37.8395 132.136 37.8395ZM146.57 42V11.7418H151.949V42H146.57Z" fill="black"/>
<rect x="63" y="12" width="17.8608" height="5.25316" fill="#287BF9"/>
</svg>
