<svg width="251" height="94" viewBox="0 0 251 94" fill="none" xmlns="http://www.w3.org/2000/svg">
<rect width="250.389" height="93.2003" rx="15.241" fill="white"/>
<path d="M71.3763 42.264C69.851 42.264 68.531 41.934 67.4163 41.274C66.3163 40.5993 65.4657 39.668 64.8643 38.48C64.263 37.2773 63.9623 35.8913 63.9623 34.322C63.9623 32.738 64.263 31.352 64.8643 30.164C65.4657 28.9613 66.3163 28.0227 67.4163 27.348C68.531 26.6733 69.851 26.336 71.3763 26.336C73.1803 26.336 74.6543 26.776 75.7983 27.656C76.9423 28.536 77.6683 29.768 77.9763 31.352H75.3803C75.175 30.4573 74.735 29.746 74.0603 29.218C73.3857 28.69 72.4837 28.426 71.3543 28.426C69.8143 28.426 68.597 28.954 67.7023 30.01C66.8077 31.0513 66.3603 32.4887 66.3603 34.322C66.3603 36.1407 66.8077 37.5707 67.7023 38.612C68.597 39.6533 69.8143 40.174 71.3543 40.174C72.4837 40.174 73.3857 39.9247 74.0603 39.426C74.735 38.9273 75.175 38.2453 75.3803 37.38H77.9763C77.6683 38.9053 76.9423 40.1007 75.7983 40.966C74.6543 41.8313 73.1803 42.264 71.3763 42.264ZM85.5557 42.264C84.5144 42.264 83.5757 42.0293 82.7397 41.56C81.9184 41.076 81.2657 40.4087 80.7817 39.558C80.2977 38.6927 80.0557 37.688 80.0557 36.544C80.0557 35.4 80.2977 34.4027 80.7817 33.552C81.2804 32.6867 81.9477 32.0193 82.7837 31.55C83.6197 31.066 84.551 30.824 85.5777 30.824C86.619 30.824 87.5504 31.066 88.3717 31.55C89.2077 32.0193 89.8677 32.6867 90.3517 33.552C90.8504 34.4027 91.0997 35.4 91.0997 36.544C91.0997 37.688 90.8504 38.6927 90.3517 39.558C89.8677 40.4087 89.2077 41.076 88.3717 41.56C87.5357 42.0293 86.597 42.264 85.5557 42.264ZM85.5557 40.262C86.113 40.262 86.6264 40.1227 87.0957 39.844C87.5797 39.5653 87.9684 39.1547 88.2617 38.612C88.555 38.0547 88.7017 37.3653 88.7017 36.544C88.7017 35.7227 88.555 35.0407 88.2617 34.498C87.983 33.9407 87.6017 33.5227 87.1177 33.244C86.6484 32.9653 86.135 32.826 85.5777 32.826C85.0204 32.826 84.4997 32.9653 84.0157 33.244C83.5464 33.5227 83.165 33.9407 82.8717 34.498C82.5784 35.0407 82.4317 35.7227 82.4317 36.544C82.4317 37.3653 82.5784 38.0547 82.8717 38.612C83.165 39.1547 83.5464 39.5653 84.0157 39.844C84.485 40.1227 84.9984 40.262 85.5557 40.262ZM93.6216 42V31.088H95.6896L95.8656 33.002C96.2029 32.3273 96.6943 31.7993 97.3396 31.418C97.9996 31.022 98.7549 30.824 99.6056 30.824C100.926 30.824 101.96 31.2347 102.708 32.056C103.47 32.8773 103.852 34.102 103.852 35.73V42H101.542V35.972C101.542 33.86 100.676 32.804 98.9456 32.804C98.0803 32.804 97.3616 33.112 96.7896 33.728C96.2323 34.344 95.9536 35.224 95.9536 36.368V42H93.6216ZM111.174 42C110.104 42 109.253 41.7433 108.622 41.23C107.992 40.702 107.676 39.7707 107.676 38.436V33.046H105.806V31.088H107.676L107.962 28.316H110.008V31.088H113.088V33.046H110.008V38.436C110.008 39.0373 110.133 39.4553 110.382 39.69C110.646 39.91 111.094 40.02 111.724 40.02H112.978V42H111.174ZM120.317 42.264C119.247 42.264 118.293 42.0293 117.457 41.56C116.636 41.076 115.991 40.4087 115.521 39.558C115.052 38.7073 114.817 37.7173 114.817 36.588C114.817 35.444 115.045 34.4393 115.499 33.574C115.969 32.7087 116.614 32.034 117.435 31.55C118.271 31.066 119.239 30.824 120.339 30.824C121.41 30.824 122.341 31.066 123.133 31.55C123.925 32.0193 124.541 32.65 124.981 33.442C125.421 34.234 125.641 35.1067 125.641 36.06C125.641 36.2067 125.634 36.368 125.619 36.544C125.619 36.7053 125.612 36.8887 125.597 37.094H117.105C117.179 38.15 117.523 38.9567 118.139 39.514C118.77 40.0567 119.496 40.328 120.317 40.328C120.977 40.328 121.527 40.1813 121.967 39.888C122.422 39.58 122.759 39.1693 122.979 38.656H125.311C125.018 39.6827 124.431 40.5407 123.551 41.23C122.686 41.9193 121.608 42.264 120.317 42.264ZM120.317 32.738C119.54 32.738 118.851 32.9727 118.249 33.442C117.648 33.8967 117.281 34.586 117.149 35.51H123.309C123.265 34.6593 122.965 33.9847 122.407 33.486C121.85 32.9873 121.153 32.738 120.317 32.738ZM128.061 42V31.088H130.129L130.305 33.002C130.642 32.3273 131.134 31.7993 131.779 31.418C132.439 31.022 133.194 30.824 134.045 30.824C135.365 30.824 136.399 31.2347 137.147 32.056C137.91 32.8773 138.291 34.102 138.291 35.73V42H135.981V35.972C135.981 33.86 135.116 32.804 133.385 32.804C132.52 32.804 131.801 33.112 131.229 33.728C130.672 34.344 130.393 35.224 130.393 36.368V42H128.061ZM145.614 42C144.543 42 143.692 41.7433 143.062 41.23C142.431 40.702 142.116 39.7707 142.116 38.436V33.046H140.246V31.088H142.116L142.402 28.316H144.448V31.088H147.528V33.046H144.448V38.436C144.448 39.0373 144.572 39.4553 144.822 39.69C145.086 39.91 145.533 40.02 146.164 40.02H147.418V42H145.614ZM155.563 42V26.6H165.221V28.492H157.895V33.354H163.967V35.224H157.895V42H155.563ZM171.987 42.264C170.946 42.264 170.007 42.0293 169.171 41.56C168.35 41.076 167.697 40.4087 167.213 39.558C166.729 38.6927 166.487 37.688 166.487 36.544C166.487 35.4 166.729 34.4027 167.213 33.552C167.712 32.6867 168.379 32.0193 169.215 31.55C170.051 31.066 170.983 30.824 172.009 30.824C173.051 30.824 173.982 31.066 174.803 31.55C175.639 32.0193 176.299 32.6867 176.783 33.552C177.282 34.4027 177.531 35.4 177.531 36.544C177.531 37.688 177.282 38.6927 176.783 39.558C176.299 40.4087 175.639 41.076 174.803 41.56C173.967 42.0293 173.029 42.264 171.987 42.264ZM171.987 40.262C172.545 40.262 173.058 40.1227 173.527 39.844C174.011 39.5653 174.4 39.1547 174.693 38.612C174.987 38.0547 175.133 37.3653 175.133 36.544C175.133 35.7227 174.987 35.0407 174.693 34.498C174.415 33.9407 174.033 33.5227 173.549 33.244C173.08 32.9653 172.567 32.826 172.009 32.826C171.452 32.826 170.931 32.9653 170.447 33.244C169.978 33.5227 169.597 33.9407 169.303 34.498C169.01 35.0407 168.863 35.7227 168.863 36.544C168.863 37.3653 169.01 38.0547 169.303 38.612C169.597 39.1547 169.978 39.5653 170.447 39.844C170.917 40.1227 171.43 40.262 171.987 40.262ZM180.053 42V31.088H182.143L182.341 33.156C182.723 32.4373 183.251 31.8727 183.925 31.462C184.615 31.0367 185.443 30.824 186.411 30.824V33.266H185.773C185.128 33.266 184.549 33.376 184.035 33.596C183.537 33.8013 183.133 34.1607 182.825 34.674C182.532 35.1727 182.385 35.8693 182.385 36.764V42H180.053ZM73.2028 71V55.6H79.0108C80.6094 55.6 81.8194 55.974 82.6408 56.722C83.4621 57.47 83.8728 58.4087 83.8728 59.538C83.8728 60.5207 83.6088 61.3053 83.0808 61.892C82.5528 62.464 81.9148 62.8527 81.1668 63.058C81.7534 63.1753 82.2741 63.41 82.7288 63.762C83.1981 64.114 83.5648 64.554 83.8288 65.082C84.0928 65.61 84.2248 66.182 84.2248 66.798C84.2248 67.59 84.0268 68.3087 83.6308 68.954C83.2494 69.5847 82.6848 70.0833 81.9368 70.45C81.1888 70.8167 80.2721 71 79.1868 71H73.2028ZM75.5348 62.2H78.7248C79.6194 62.2 80.3014 61.9947 80.7708 61.584C81.2401 61.1587 81.4748 60.5793 81.4748 59.846C81.4748 59.1273 81.2401 58.5553 80.7708 58.13C80.3161 57.7047 79.6194 57.492 78.6808 57.492H75.5348V62.2ZM75.5348 69.086H78.8788C79.8174 69.086 80.5434 68.866 81.0568 68.426C81.5848 67.986 81.8488 67.37 81.8488 66.578C81.8488 65.786 81.5774 65.1627 81.0348 64.708C80.4921 64.2387 79.7588 64.004 78.8348 64.004H75.5348V69.086ZM90.3889 71.264C89.4649 71.264 88.7022 71.11 88.1009 70.802C87.4996 70.494 87.0522 70.0907 86.7589 69.592C86.4656 69.0787 86.3189 68.5213 86.3189 67.92C86.3189 66.864 86.7296 66.028 87.5509 65.412C88.3722 64.796 89.5456 64.488 91.0709 64.488H93.9309V64.29C93.9309 63.4393 93.6962 62.8013 93.2269 62.376C92.7722 61.9507 92.1782 61.738 91.4449 61.738C90.7996 61.738 90.2349 61.8993 89.7509 62.222C89.2816 62.53 88.9956 62.992 88.8929 63.608H86.5609C86.6342 62.816 86.8982 62.1413 87.3529 61.584C87.8222 61.012 88.4089 60.5793 89.1129 60.286C89.8316 59.978 90.6162 59.824 91.4669 59.824C92.9922 59.824 94.1729 60.2273 95.0089 61.034C95.8449 61.826 96.2629 62.9113 96.2629 64.29V71H94.2389L94.0409 69.13C93.7329 69.7313 93.2856 70.2373 92.6989 70.648C92.1122 71.0587 91.3422 71.264 90.3889 71.264ZM90.8509 69.372C91.4816 69.372 92.0096 69.2253 92.4349 68.932C92.8749 68.624 93.2122 68.2207 93.4469 67.722C93.6962 67.2233 93.8502 66.6733 93.9089 66.072H91.3129C90.3889 66.072 89.7289 66.2333 89.3329 66.556C88.9516 66.8787 88.7609 67.282 88.7609 67.766C88.7609 68.2647 88.9442 68.6607 89.3109 68.954C89.6922 69.2327 90.2056 69.372 90.8509 69.372ZM104.152 71.264C103.081 71.264 102.121 71.022 101.27 70.538C100.434 70.054 99.774 69.3867 99.29 68.536C98.8206 67.6707 98.586 66.6733 98.586 65.544C98.586 64.4147 98.8206 63.4247 99.29 62.574C99.774 61.7087 100.434 61.034 101.27 60.55C102.121 60.066 103.081 59.824 104.152 59.824C105.501 59.824 106.631 60.176 107.54 60.88C108.464 61.584 109.058 62.5373 109.322 63.74H106.88C106.733 63.1387 106.411 62.6693 105.912 62.332C105.413 61.9947 104.827 61.826 104.152 61.826C103.58 61.826 103.052 61.9727 102.568 62.266C102.084 62.5447 101.695 62.9627 101.402 63.52C101.109 64.0627 100.962 64.7373 100.962 65.544C100.962 66.3507 101.109 67.0327 101.402 67.59C101.695 68.1327 102.084 68.5507 102.568 68.844C103.052 69.1373 103.58 69.284 104.152 69.284C104.827 69.284 105.413 69.1153 105.912 68.778C106.411 68.4407 106.733 67.964 106.88 67.348H109.322C109.073 68.5213 108.486 69.4673 107.562 70.186C106.638 70.9047 105.501 71.264 104.152 71.264ZM111.851 71V55.16H114.183V64.598L118.363 60.088H121.157L116.515 65.038L121.839 71H118.891L114.183 65.412V71H111.851ZM127.912 71.264C126.841 71.264 125.888 71.0293 125.052 70.56C124.231 70.076 123.585 69.4087 123.116 68.558C122.647 67.7073 122.412 66.7173 122.412 65.588C122.412 64.444 122.639 63.4393 123.094 62.574C123.563 61.7087 124.209 61.034 125.03 60.55C125.866 60.066 126.834 59.824 127.934 59.824C129.005 59.824 129.936 60.066 130.728 60.55C131.52 61.0193 132.136 61.65 132.576 62.442C133.016 63.234 133.236 64.1067 133.236 65.06C133.236 65.2067 133.229 65.368 133.214 65.544C133.214 65.7053 133.207 65.8887 133.192 66.094H124.7C124.773 67.15 125.118 67.9567 125.734 68.514C126.365 69.0567 127.091 69.328 127.912 69.328C128.572 69.328 129.122 69.1813 129.562 68.888C130.017 68.58 130.354 68.1693 130.574 67.656H132.906C132.613 68.6827 132.026 69.5407 131.146 70.23C130.281 70.9193 129.203 71.264 127.912 71.264ZM127.912 61.738C127.135 61.738 126.445 61.9727 125.844 62.442C125.243 62.8967 124.876 63.586 124.744 64.51H130.904C130.86 63.6593 130.559 62.9847 130.002 62.486C129.445 61.9873 128.748 61.738 127.912 61.738ZM135.656 71V60.088H137.724L137.9 62.002C138.237 61.3273 138.728 60.7993 139.374 60.418C140.034 60.022 140.789 59.824 141.64 59.824C142.96 59.824 143.994 60.2347 144.742 61.056C145.504 61.8773 145.886 63.102 145.886 64.73V71H143.576V64.972C143.576 62.86 142.71 61.804 140.98 61.804C140.114 61.804 139.396 62.112 138.824 62.728C138.266 63.344 137.988 64.224 137.988 65.368V71H135.656ZM153.604 71.264C152.548 71.264 151.617 71.0147 150.81 70.516C150.004 70.0173 149.373 69.3353 148.918 68.47C148.464 67.6047 148.236 66.622 148.236 65.522C148.236 64.422 148.464 63.4467 148.918 62.596C149.373 61.7307 150.004 61.056 150.81 60.572C151.632 60.0733 152.57 59.824 153.626 59.824C154.492 59.824 155.247 59.9927 155.892 60.33C156.552 60.6673 157.066 61.144 157.432 61.76V55.16H159.764V71H157.674L157.432 69.306C157.08 69.8193 156.596 70.274 155.98 70.67C155.364 71.066 154.572 71.264 153.604 71.264ZM154.022 69.24C155.02 69.24 155.834 68.8953 156.464 68.206C157.11 67.5167 157.432 66.6293 157.432 65.544C157.432 64.444 157.11 63.5567 156.464 62.882C155.834 62.1927 155.02 61.848 154.022 61.848C153.025 61.848 152.204 62.1927 151.558 62.882C150.913 63.5567 150.59 64.444 150.59 65.544C150.59 66.2627 150.737 66.9007 151.03 67.458C151.324 68.0153 151.727 68.4553 152.24 68.778C152.768 69.086 153.362 69.24 154.022 69.24ZM169.942 66.446L169.854 62.86H170.69C171.482 62.86 172.208 62.7867 172.868 62.64C173.542 62.4933 174.078 62.2073 174.474 61.782C174.884 61.3567 175.09 60.726 175.09 59.89C175.09 59.0833 174.84 58.4527 174.342 57.998C173.843 57.5287 173.19 57.294 172.384 57.294C171.548 57.294 170.888 57.5213 170.404 57.976C169.92 58.4307 169.678 59.0467 169.678 59.824H167.478C167.463 58.944 167.654 58.1667 168.05 57.492C168.46 56.8173 169.032 56.2893 169.766 55.908C170.514 55.5267 171.386 55.336 172.384 55.336C173.352 55.336 174.21 55.5193 174.958 55.886C175.706 56.2527 176.285 56.7807 176.696 57.47C177.121 58.1447 177.334 58.9587 177.334 59.912C177.334 60.9533 177.106 61.8113 176.652 62.486C176.197 63.146 175.574 63.6373 174.782 63.96C173.99 64.268 173.08 64.422 172.054 64.422L171.988 66.446H169.942ZM170.976 71.132C170.521 71.132 170.154 70.9927 169.876 70.714C169.597 70.4207 169.458 70.076 169.458 69.68C169.458 69.2693 169.597 68.9247 169.876 68.646C170.154 68.3527 170.521 68.206 170.976 68.206C171.401 68.206 171.753 68.3527 172.032 68.646C172.325 68.9247 172.472 69.2693 172.472 69.68C172.472 70.076 172.325 70.4207 172.032 70.714C171.753 70.9927 171.401 71.132 170.976 71.132Z" fill="black"/>
</svg>
